<?xml version="1.0" encoding="UTF-8" standalone="no"?>
<!DOCTYPE svg PUBLIC "-//W3C//DTD SVG 1.1//EN"
 "http://www.w3.org/Graphics/SVG/1.1/DTD/svg11.dtd">
<!-- Generated by graphviz version 2.40.1 (20161225.0304)
 -->
<!-- Title: dependencies Pages: 1 -->
<svg width="899pt" height="284pt"
 viewBox="0.00 0.00 899.00 284.00" xmlns="http://www.w3.org/2000/svg" xmlns:xlink="http://www.w3.org/1999/xlink">
<g id="graph0" class="graph" transform="scale(1 1) rotate(0) translate(4 280)">
<title>dependencies</title>
<polygon fill="#ffffff" stroke="transparent" points="-4,4 -4,-280 895,-280 895,4 -4,4"/>
<text text-anchor="start" x="424.5091" y="-42.4" font-family="sans-serif" font-weight="bold" font-size="14.00" fill="#000000">Legend</text>
<polygon fill="#ffffb3" stroke="transparent" points="211.5,-10 211.5,-30 231.5,-30 231.5,-10 211.5,-10"/>
<text text-anchor="start" x="235.129" y="-15.4" font-family="sans-serif" font-size="14.00" fill="#000000"> &#160;Declarations</text>
<polygon fill="#8dd3c7" stroke="transparent" points="324.5,-10 324.5,-30 344.5,-30 344.5,-10 324.5,-10"/>
<text text-anchor="start" x="348.2251" y="-15.4" font-family="sans-serif" font-size="14.00" fill="#000000"> &#160;Module</text>
<polygon fill="#80b1d3" stroke="transparent" points="410.5,-10 410.5,-30 430.5,-30 430.5,-10 410.5,-10"/>
<text text-anchor="start" x="434.2812" y="-15.4" font-family="sans-serif" font-size="14.00" fill="#000000"> &#160;Bootstrap</text>
<polygon fill="#fdb462" stroke="transparent" points="507.5,-10 507.5,-30 527.5,-30 527.5,-10 507.5,-10"/>
<text text-anchor="start" x="531.1732" y="-15.4" font-family="sans-serif" font-size="14.00" fill="#000000"> &#160;Providers</text>
<polygon fill="#fb8072" stroke="transparent" points="603.5,-10 603.5,-30 623.5,-30 623.5,-10 603.5,-10"/>
<text text-anchor="start" x="627.2258" y="-15.4" font-family="sans-serif" font-size="14.00" fill="#000000"> &#160;Exports</text>
<g id="clust1" class="cluster">
<title>cluster_AppModule</title>
<polygon fill="none" stroke="#000000" stroke-dasharray="1,5" points="8,-70 8,-268 883,-268 883,-70 8,-70"/>
</g>
<g id="clust2" class="cluster">
<title>cluster_AppModule_declarations</title>
<polygon fill="none" stroke="#000000" points="470,-78 470,-130 875,-130 875,-78 470,-78"/>
</g>
<g id="clust8" class="cluster">
<title>cluster_AppModule_bootstrap</title>
<polygon fill="none" stroke="#000000" points="400,-208 400,-260 524,-260 524,-208 400,-208"/>
</g>
<g id="clust9" class="cluster">
<title>cluster_AppModule_providers</title>
<polygon fill="none" stroke="#000000" points="16,-78 16,-130 462,-130 462,-78 16,-78"/>
</g>
<!-- AppComponent -->
<g id="node1" class="node">
<title>AppComponent</title>
<polygon fill="#ffffb3" stroke="#000000" points="866.9399,-122 761.0601,-122 761.0601,-86 866.9399,-86 866.9399,-122"/>
<text text-anchor="middle" x="814" y="-99.8" font-family="Times,serif" font-size="14.00" fill="#000000">AppComponent</text>
</g>
<!-- AppModule -->
<g id="node4" class="node">
<title>AppModule</title>
<polygon fill="#8dd3c7" stroke="#000000" points="503.6571,-187 500.6571,-191 479.6571,-191 476.6571,-187 420.3429,-187 420.3429,-151 503.6571,-151 503.6571,-187"/>
<text text-anchor="middle" x="462" y="-164.8" font-family="Times,serif" font-size="14.00" fill="#000000">AppModule</text>
</g>
<!-- AppComponent&#45;&gt;AppModule -->
<g id="edge1" class="edge">
<title>AppComponent&#45;&gt;AppModule</title>
<path fill="none" stroke="#000000" d="M814,-122.2843C814,-143.3211 814,-175 814,-175 814,-175 513.7613,-175 513.7613,-175"/>
<polygon fill="#000000" stroke="#000000" points="513.7613,-171.5001 503.7613,-175 513.7613,-178.5001 513.7613,-171.5001"/>
</g>
<!-- EchartsComponent -->
<g id="node2" class="node">
<title>EchartsComponent</title>
<polygon fill="#ffffb3" stroke="#000000" points="743.8104,-122 620.1896,-122 620.1896,-86 743.8104,-86 743.8104,-122"/>
<text text-anchor="middle" x="682" y="-99.8" font-family="Times,serif" font-size="14.00" fill="#000000">EchartsComponent</text>
</g>
<!-- EchartsComponent&#45;&gt;AppModule -->
<g id="edge2" class="edge">
<title>EchartsComponent&#45;&gt;AppModule</title>
<path fill="none" stroke="#000000" d="M682,-122.0225C682,-139.3734 682,-163 682,-163 682,-163 513.8982,-163 513.8982,-163"/>
<polygon fill="#000000" stroke="#000000" points="513.8982,-159.5001 503.8982,-163 513.8981,-166.5001 513.8982,-159.5001"/>
</g>
<!-- HchartsComponent -->
<g id="node3" class="node">
<title>HchartsComponent</title>
<polygon fill="#ffffb3" stroke="#000000" points="602.3641,-122 477.6359,-122 477.6359,-86 602.3641,-86 602.3641,-122"/>
<text text-anchor="middle" x="540" y="-99.8" font-family="Times,serif" font-size="14.00" fill="#000000">HchartsComponent</text>
</g>
<!-- HchartsComponent&#45;&gt;AppModule -->
<g id="edge3" class="edge">
<title>HchartsComponent&#45;&gt;AppModule</title>
<path fill="none" stroke="#000000" d="M490.6981,-122.1061C490.6981,-122.1061 490.6981,-140.991 490.6981,-140.991"/>
<polygon fill="#000000" stroke="#000000" points="487.1982,-140.9909 490.6981,-150.991 494.1982,-140.991 487.1982,-140.9909"/>
</g>
<!-- AppComponent  -->
<g id="node5" class="node">
<title>AppComponent </title>
<polygon fill="#80b1d3" stroke="#000000" points="516.439,-252 407.561,-252 407.561,-216 516.439,-216 516.439,-252"/>
<text text-anchor="middle" x="462" y="-229.8" font-family="Times,serif" font-size="14.00" fill="#000000">AppComponent </text>
</g>
<!-- AppModule&#45;&gt;AppComponent  -->
<g id="edge4" class="edge">
<title>AppModule&#45;&gt;AppComponent </title>
<path fill="none" stroke="#000000" stroke-dasharray="1,5" d="M462,-187.1061C462,-187.1061 462,-205.991 462,-205.991"/>
<polygon fill="#000000" stroke="#000000" points="458.5001,-205.9909 462,-215.991 465.5001,-205.991 458.5001,-205.9909"/>
</g>
<!-- EchartsService -->
<g id="node6" class="node">
<title>EchartsService</title>
<ellipse fill="#fdb462" stroke="#000000" cx="385" cy="-104" rx="68.8946" ry="18"/>
<text text-anchor="middle" x="385" y="-99.8" font-family="Times,serif" font-size="14.00" fill="#000000">EchartsService</text>
</g>
<!-- EchartsService&#45;&gt;AppModule -->
<g id="edge5" class="edge">
<title>EchartsService&#45;&gt;AppModule</title>
<path fill="none" stroke="#000000" d="M437.0595,-115.922C437.0595,-115.922 437.0595,-140.7669 437.0595,-140.7669"/>
<polygon fill="#000000" stroke="#000000" points="433.5596,-140.7669 437.0595,-150.7669 440.5596,-140.7669 433.5596,-140.7669"/>
</g>
<!-- DataService -->
<g id="node7" class="node">
<title>DataService</title>
<ellipse fill="#fdb462" stroke="#000000" cx="240" cy="-104" rx="58.4415" ry="18"/>
<text text-anchor="middle" x="240" y="-99.8" font-family="Times,serif" font-size="14.00" fill="#000000">DataService</text>
</g>
<!-- DataService&#45;&gt;AppModule -->
<g id="edge6" class="edge">
<title>DataService&#45;&gt;AppModule</title>
<path fill="none" stroke="#000000" d="M240,-122.0225C240,-139.3734 240,-163 240,-163 240,-163 410.2435,-163 410.2435,-163"/>
<polygon fill="#000000" stroke="#000000" points="410.2435,-166.5001 420.2435,-163 410.2435,-159.5001 410.2435,-166.5001"/>
</g>
<!-- HchartsService -->
<g id="node8" class="node">
<title>HchartsService</title>
<ellipse fill="#fdb462" stroke="#000000" cx="94" cy="-104" rx="70.0384" ry="18"/>
<text text-anchor="middle" x="94" y="-99.8" font-family="Times,serif" font-size="14.00" fill="#000000">HchartsService</text>
</g>
<!-- HchartsService&#45;&gt;AppModule -->
<g id="edge7" class="edge">
<title>HchartsService&#45;&gt;AppModule</title>
<path fill="none" stroke="#000000" d="M94,-122.2843C94,-143.3211 94,-175 94,-175 94,-175 410.144,-175 410.144,-175"/>
<polygon fill="#000000" stroke="#000000" points="410.144,-178.5001 420.144,-175 410.144,-171.5001 410.144,-178.5001"/>
</g>
</g>
</svg>
